<?xml version="1.0" encoding="UTF-8"?>
<svg width="118px" height="40px" viewBox="0 0 118 40" version="1.1" xmlns="http://www.w3.org/2000/svg" xmlns:xlink="http://www.w3.org/1999/xlink">
    <!-- Generator: Sketch 48.2 (47327) - http://www.bohemiancoding.com/sketch -->
    <title>Ketopult</title>
    <desc>Created with Sketch.</desc>
    <defs></defs>
    <g id="Letter" stroke="none" stroke-width="1" fill="none" fill-rule="evenodd" transform="translate(-247.000000, -187.000000)">
        <path d="M258.831999,226.104 C258.639999,226.104 258.448,226.072 258.255999,226.008 C258.095999,225.976 257.92,225.96 257.727999,225.96 C256.863995,221.063976 256.000004,216.968016 255.135999,213.672 C254.271995,210.375984 253.184006,207.272015 251.871999,204.36 L250.863999,206.232 C250.575998,206.776003 250.416,207.255998 250.383999,207.672 C250.287999,208.632005 250.239999,209.335998 250.239999,209.784 C250.239999,210.744005 250.287999,212.21599 250.383999,214.2 C250.48,216.15201 250.527999,217.639995 250.527999,218.664 L250.527999,222.6 C250.527999,224.296008 249.984005,225.144 248.895999,225.144 C247.967995,225.144 247.503999,224.248009 247.503999,222.456 C247.503999,221.047993 247.599999,218.888015 247.791999,215.976 C248.016001,213.287987 248.127999,211.144008 248.127999,209.544 L248.175999,205.416 L248.175999,200.424 C248.175999,198.663991 248.064001,196.82401 247.839999,194.904 C247.615998,192.91999 247.503999,191.416005 247.503999,190.392 C247.503999,189.975998 247.631998,189.624001 247.887999,189.336 C248.144001,189.047999 248.463998,188.904 248.847999,188.904 C250.032005,188.904 250.623999,190.199987 250.623999,192.792 L250.431999,202.632 L251.343999,200.28 C252.400005,197.591987 253.487994,194.936013 254.607999,192.312 C255.248003,190.871993 255.823997,189.736004 256.335999,188.904 C256.880002,188.039996 257.311998,187.608 257.631999,187.608 C257.984001,187.608 258.295998,187.727999 258.567999,187.968 C258.840001,188.208001 258.975999,188.503998 258.975999,188.856 C258.975999,189.176002 258.112008,191.159982 256.383999,194.808 C254.687991,198.296017 253.696001,200.615994 253.407999,201.768 L253.407999,202.632 C253.888002,203.848006 255.167989,207.743967 257.247999,214.32 C259.32801,220.896033 260.367999,224.375998 260.367999,224.76 C260.367999,225.144002 260.216001,225.463999 259.911999,225.72 C259.607998,225.976001 259.248002,226.104 258.831999,226.104 Z M267.696,225.624 C267.279998,225.624 266.904001,225.480001 266.568,225.192 C266.231998,224.903999 266.048,224.552002 266.016,224.136 L266.016,221.928 C265.983999,221.639999 265.968,221.304002 265.968,220.92 C265.968,220.247997 265.92,219.224007 265.824,217.848 L265.728,214.776 C265.728,213.207992 265.775999,210.872016 265.872,207.768 C266,204.983986 266.064,202.648009 266.064,200.76 C266.064,200.311998 266.016,199.640004 265.92,198.744 C265.823999,197.815995 265.776,197.144002 265.776,196.728 C265.776,194.455989 266.447993,193.32 267.792,193.32 C268.848005,193.32 270.071993,193.527998 271.464,193.944 C272.856007,194.360002 273.552,194.855997 273.552,195.432 C273.552,195.752002 273.416001,196.047999 273.144,196.32 C272.871998,196.592001 272.544002,196.807999 272.16,196.968 C270.815993,196.487998 269.600005,196.168001 268.512,196.008 C268.544,196.488002 268.56,197.175996 268.56,198.072 C268.56,199.352006 268.544,200.503995 268.512,201.528 C268.415999,203.064008 268.368,204.215996 268.368,204.984 L268.512,205.752 L269.28,205.704 C269.536001,205.672 269.855998,205.656 270.24,205.656 C271.776007,205.656 272.544,206.103996 272.544,207 C272.544,207.352002 272.400001,207.647999 272.112,207.888 C271.823998,208.128001 271.456002,208.248 271.008,208.248 C270.431997,208.248 269.984001,208.216 269.664,208.152 L268.464,208.152 C268.528,208.984004 268.56,210.199992 268.56,211.8 C268.56,213.400008 268.544,214.839994 268.512,216.12 C268.415999,218.07201 268.368,219.527995 268.368,220.488 C268.368,222.280009 268.399999,223.176 268.464,223.176 L270.048,223.128 C270.592002,223.096 271.247996,223.08 272.016,223.08 C273.232006,223.08 273.84,223.463996 273.84,224.232 C273.84,224.680002 273.640002,225.023999 273.24,225.264 C272.839998,225.504001 272.352002,225.624 271.776,225.624 L267.696,225.624 Z M282.608,224.232 L282.56,222.36 C282.528,221.815997 282.512,221.208003 282.512,220.536 L282.56,218.904 C282.463999,218.551998 282.224002,215.048033 281.84,208.392 C281.455998,201.735967 281.232,197.464009 281.168,195.576 C279.31199,195.512 278.128002,195.320002 277.616,195 C277.263998,194.743999 277.088,194.456002 277.088,194.136 C277.088,193.879999 277.255998,193.648001 277.592,193.44 C277.928001,193.231999 278.271998,193.128 278.624,193.128 C279.520004,193.128 280.607993,193.191999 281.888,193.32 C283.104006,193.480001 284.191995,193.56 285.152,193.56 L285.92,193.56 C286.912005,193.56 287.408,193.943996 287.408,194.712 C287.408,195.096002 287.248001,195.407999 286.928,195.648 C286.607998,195.888001 286.240002,196.008 285.824,196.008 C285.535998,196.008 285.120002,195.96 284.576,195.864 L283.616,195.672 L283.52,196.152 C283.52,199.000014 283.791997,203.543969 284.336,209.784 C284.848002,215.640029 285.104,220.183984 285.104,223.416 C285.104,223.800002 284.936001,224.135999 284.6,224.424 C284.263998,224.712001 283.888002,224.856 283.472,224.856 L282.608,224.232 Z M298.624,225.912 C297.791996,225.912 297.024003,225.648003 296.32,225.12 C295.615996,224.591997 295.040002,223.880004 294.592,222.984 C293.663995,221.03199 293.088001,218.904012 292.864,216.6 C292.575998,214.423989 292.432,212.32801 292.432,210.312 C292.432,209.927998 292.448,209.608001 292.48,209.352 L292.48,208.488 C292.48,208.327999 292.464,208.248 292.432,208.248 L292.432,207.384 L292.48,204.024 C292.512,202.999995 292.639999,201.368011 292.864,199.128 C293.024001,197.591992 293.391997,196.104007 293.968,194.664 C294.192001,194.023997 294.479998,193.536002 294.832,193.2 C295.184002,192.863998 295.583998,192.696 296.032,192.696 C297.312006,192.696 298.463995,192.927998 299.488,193.392 C300.512005,193.856002 301.375996,194.503996 302.08,195.336 C302.720003,196.136004 303.263998,197.119994 303.712,198.288 C304.160002,199.456006 304.479999,200.695993 304.672,202.008 C304.864001,203.352007 304.96,204.775992 304.96,206.28 L304.96,206.664 C304.96,207.656005 304.976,208.551996 305.008,209.352 L305.056,212.088 C305.056,221.304046 302.912021,225.912 298.624,225.912 Z M298.432,223.896 C299.008003,223.896 299.535997,223.664002 300.016,223.2 C300.496002,222.735998 300.863999,222.104004 301.12,221.304 C301.728003,219.671992 302.095999,217.912009 302.224,216.024 C302.384001,214.391992 302.464,212.984006 302.464,211.8 C302.464,210.359993 302.352001,208.472012 302.128,206.136 C301.935999,203.671988 301.84,201.832006 301.84,200.616 L301.84,199.752 C301.776,198.535994 301.368004,197.480004 300.616,196.584 C299.863996,195.687996 298.944005,195.24 297.856,195.24 C296.767994,195.24 296.048002,195.863994 295.696,197.112 C295.375998,198.104005 295.216,199.383992 295.216,200.952 C295.216,201.560003 295.232,202.071998 295.264,202.488 L295.264,203.784 L295.168,205.992 C295.104,206.664003 295.072,207.399996 295.072,208.2 C295.072,209.928009 295.119999,211.639992 295.216,213.336 C295.344001,215.736012 295.663997,218.071989 296.176,220.344 C296.688002,222.712012 297.439995,223.896 298.432,223.896 Z M312.144,225.336 C311.727998,223.639992 311.52,221.288015 311.52,218.28 L311.616,214.008 C311.68,212.727994 311.712,211.304008 311.712,209.736 C311.519999,209.287998 311.424,208.888002 311.424,208.536 L311.424,208.392 C311.744002,207.783997 311.904,206.408011 311.904,204.264 L311.952,202.056 C311.984,201.351996 312,200.568004 312,199.704 C312,197.815991 311.872001,196.328005 311.616,195.24 C311.712,194.791998 311.871999,194.400002 312.096,194.064 C312.320001,193.727998 312.591998,193.56 312.912,193.56 L315.024,193.56 C315.920004,193.56 316.703997,193.759998 317.376,194.16 C318.048003,194.560002 318.559998,195.127996 318.912,195.864 C319.552003,197.176007 319.872,198.727991 319.872,200.52 C319.872,201.800006 319.856,202.807996 319.824,203.544 C319.76,204.472005 319.600001,205.319996 319.344,206.088 C319.248,206.504002 319.112001,206.847999 318.936,207.12 C318.759999,207.392001 318.512002,207.719998 318.192,208.104 C317.743998,208.648003 317.008005,209.159998 315.984,209.64 C315.567998,209.864001 315.024003,210.071999 314.352,210.264 L314.352,215.4 L314.448,218.472 L314.544,219.96 C314.672001,221.752009 314.736,223.271994 314.736,224.52 C314.736,224.904002 314.576002,225.231999 314.256,225.504 C313.935998,225.776001 313.568002,225.912 313.152,225.912 L312.144,225.336 Z M314.4,208.296 C316.288009,208.007999 317.232,205.304026 317.232,200.184 C317.232,199.255995 317.184,198.536003 317.088,198.024 C316.992,197.639998 316.864001,197.328001 316.704,197.088 C316.543999,196.847999 316.304002,196.648001 315.984,196.488 C315.631998,196.295999 315.248002,196.2 314.832,196.2 C314.832,196.168 314.656002,196.152 314.304,196.152 L314.304,198.888 C314.304,200.776009 314.32,202.455993 314.352,203.928 C314.352,205.592008 314.368,206.679997 314.4,207.192 L314.4,208.296 Z M330.512,225.72 C329.743996,225.72 329.056003,225.552002 328.448,225.216 C327.839997,224.879998 327.344002,224.392003 326.96,223.752 C326.191996,222.407993 325.696001,220.888008 325.472,219.192 C325.247999,217.719993 325.136,215.96001 325.136,213.912 C325.04,210.455983 324.992,206.232025 324.992,201.24 L324.944,197.544 C324.912,197.351999 324.896,197.032002 324.896,196.584 C324.832,195.367994 324.8,194.632001 324.8,194.376 C325.088002,193.703997 325.423998,193.368 325.808,193.368 C326.192002,193.368 326.535999,193.655997 326.84,194.232 C327.144002,194.808003 327.296,195.431997 327.296,196.104 L327.296,209.16 C327.296,210.440006 327.407999,212.135989 327.632,214.248 C327.856001,216.872013 327.968,218.567996 327.968,219.336 C327.968,221.704012 328.97599,222.888 330.992,222.888 C333.296012,222.888 334.448,214.280086 334.448,197.064 L334.448,193.944 C334.416,193.848 334.4,193.720001 334.4,193.56 C334.4,193.175998 334.487999,192.896001 334.664,192.72 C334.840001,192.543999 335.183998,192.456 335.696,192.456 C336.112002,192.456 336.439999,192.575999 336.68,192.816 C336.920001,193.056001 337.072,193.335998 337.136,193.656 C337.168,193.848001 337.184,194.215997 337.184,194.76 C337.184,195.272003 337.136001,196.087994 337.04,197.208 C336.911999,198.136005 336.848,198.935997 336.848,199.608 C336.848,200.344004 336.816,200.999997 336.752,201.576 L336.656,203.592 L336.656,203.976 C336.688,204.104001 336.704,204.247999 336.704,204.408 C336.704,218.616071 334.640021,225.72 330.512,225.72 Z M350.896,225.768 C349.743995,225.383998 348.320009,225.192 346.624,225.192 C346.111998,225.512002 345.568003,225.672 344.992,225.672 C344.607998,225.672 344.280002,225.504002 344.008,225.168 C343.735999,224.831998 343.6,224.472002 343.6,224.088 C343.6,221.399987 343.711999,217.816022 343.936,213.336 C344.128001,208.567976 344.224,205.000012 344.224,202.632 L344.224,202.296 C344.031999,200.27999 343.936,198.776005 343.936,197.784 C343.936,194.743985 344.495995,193.224 345.616,193.224 C345.936002,193.224 346.215999,193.343999 346.456,193.584 C346.696001,193.824001 346.816,194.103998 346.816,194.424 C346.816,194.808002 346.768001,195.415996 346.672,196.248 C346.576,197.048004 346.528,197.655998 346.528,198.072 C346.528,200.216011 346.544,202.151991 346.576,203.88 C346.608,205.576008 346.624,207.495989 346.624,209.64 C346.463999,210.120002 346.384,210.791996 346.384,211.656 L346.384,212.232 L346.288,216.024 C346.224,217.144006 346.192,218.423993 346.192,219.864 C346.192,222.072011 346.719995,223.176 347.776,223.176 C347.840001,223.176 347.944,223.168 348.088,223.152 C348.232001,223.136 348.431999,223.128 348.688,223.128 C348.976002,223.096 349.343998,223.08 349.792,223.08 C351.520009,223.08 352.384,223.559995 352.384,224.52 C352.384,224.840002 352.240002,225.111999 351.952,225.336 C351.663999,225.560001 351.312002,225.704 350.896,225.768 Z M359.856,224.232 L359.808,222.36 C359.776,221.815997 359.76,221.208003 359.76,220.536 L359.808,218.904 C359.712,218.551998 359.472002,215.048033 359.088,208.392 C358.703998,201.735967 358.480001,197.464009 358.416,195.576 C356.559991,195.512 355.376003,195.320002 354.864,195 C354.511999,194.743999 354.336,194.456002 354.336,194.136 C354.336,193.879999 354.503999,193.648001 354.84,193.44 C355.176002,193.231999 355.519999,193.128 355.872,193.128 C356.768005,193.128 357.855994,193.191999 359.136,193.32 C360.352006,193.480001 361.439996,193.56 362.4,193.56 L363.168,193.56 C364.160005,193.56 364.656,193.943996 364.656,194.712 C364.656,195.096002 364.496002,195.407999 364.176,195.648 C363.855999,195.888001 363.488002,196.008 363.072,196.008 C362.783999,196.008 362.368003,195.96 361.824,195.864 L360.864,195.672 L360.768,196.152 C360.768,199.000014 361.039998,203.543969 361.584,209.784 C362.096003,215.640029 362.352,220.183984 362.352,223.416 C362.352,223.800002 362.184002,224.135999 361.848,224.424 C361.511999,224.712001 361.136002,224.856 360.72,224.856 L359.856,224.232 Z" id="Ketopult" fill="#FFFFFF"></path>
    </g>
</svg>